# xmcd
#
# Track frame offsets:
#	150
#	14237
#	27775
#	41442
#	55047
#	69565
#	84045
#	99030
#	114405
#	126495
#	139350
#	152977
#	166690
#	180995
#	194827
#	206755
#	219240
#	234420
#	245622
#	256165
#
# Disc length: 3739 seconds
#
# Revision: 1
# Processed by: cddbd v1.5.2PL0 Copyright (c) Steve Scherf et al.
# Submitted via: audiograbber 1.83.01
#
DISCID=0f0e9914
DTITLE=Various (+ track dates) - British Dance Bands Vol. 1
DYEAR=1900
DGENRE=Jazz
TTITLE0=Alfredo and his Band (Harry Jacobson, voc.) - My Love Parade (1930)
TTITLE1=Ambrose and his Orchestra (Sam Browne and Three Ginx, voc.) - Lady Play You
TTITLE1=r Mandoline (1931)
TTITLE2=Ambrose and his Orchestra (Sam Browne, voc.) - Butterflies in the Rain (1
TTITLE2=933)
TTITLE3=Ballyhooligans - Whispering (1936)
TTITLE4=Don Marino Barreto and his Cuban Orchestra (Kay Harding, voc.) - Green Ey
TTITLE4=es (1941)
TTITLE5=BBC Dance Orchestra - The Peanut Vendor (1931)
TTITLE6=BBC Dance Orchestra (Dan Donovan, voc.) - Stars over Devon (1935)
TTITLE7=Ivy Benson and her Girls' Band - I'm Gettin' Sentimental over You (1943)
TTITLE8=Bertini and Tower Blackpool Dance Band (Cavan O'Connor, voc.) - Letting i
TTITLE8=n the Sunshine (1933)
TTITLE9=Harry Bidgood and his Broadcasters (Tom Barratt, voc.) - Telling it to th
TTITLE9=e Daisies (1930)
TTITLE10=Blue Mountaineers (Sam Browne, voc.) - Love, You Funny Thing (1932)
TTITLE11=Josephine Bradley and her Strict-Tempo Dance Orchestra - Tea for Two (
TTITLE11=1940)
TTITLE12=Larry Brennan and Winter Gardens Blackpool  Dance Band (Ken Beaumont, vo
TTITLE12=c.) - When Café Lights were Low (1935)
TTITLE13=Eddie Carroll and Casani Club Orchestra (Hugh Diamond, voc.) - In the Sw
TTITLE13=eet Long Ago (1937)
TTITLE14=Connecticut Hooligans (Jack Plant, voc.) - Day by Day (1932)
TTITLE15=Billy Cotton and his Band (Sam Browne, voc.) - The Girl in the Little Gr
TTITLE15=een Hat (1933)
TTITLE16=Billy Cotton and his Band (Alan Breeze, voc.) - A Nightingale Sang in Be
TTITLE16=rkeley Square (1940)
TTITLE17=Herman Darewski and his Band (Gerry Arthur, voc.) - Wishing (Will Make I
TTITLE17=t So) (1939)
TTITLE18=The Durium Dance Band - Can't We Talk it Over (1932)
TTITLE19=Durium Revellers (Sam Browne, voc.) - Too Many Tears and When Yuba Plays
TTITLE19=a Rumba on the Tuba (1932)
EXTD=Artist names corrected and completed.\nTrack dates provided.
EXTT0=
EXTT1=
EXTT2=
EXTT3=
EXTT4=
EXTT5=
EXTT6=
EXTT7=
EXTT8=
EXTT9=
EXTT10=
EXTT11=
EXTT12=
EXTT13=
EXTT14=
EXTT15=
EXTT16=
EXTT17=
EXTT18=
EXTT19=
PLAYORDER=
